<?xml version="1.0" encoding="UTF-8" standalone="no"?>
<!-- Created with Inkscape (http://www.inkscape.org/) -->

<svg
   width="256"
   height="256"
   viewBox="0 0 256 256"
   version="1.1"
   id="svg1"
   inkscape:version="1.3.2 (091e20e, 2023-11-25, custom)"
   sodipodi:docname="MoveMarker.svg"
   inkscape:export-filename="MoveMarker.png"
   inkscape:export-xdpi="96"
   inkscape:export-ydpi="96"
   xmlns:inkscape="http://www.inkscape.org/namespaces/inkscape"
   xmlns:sodipodi="http://sodipodi.sourceforge.net/DTD/sodipodi-0.dtd"
   xmlns="http://www.w3.org/2000/svg"
   xmlns:svg="http://www.w3.org/2000/svg">
  <sodipodi:namedview
     id="namedview1"
     pagecolor="#ffffff"
     bordercolor="#000000"
     borderopacity="0.25"
     inkscape:showpageshadow="2"
     inkscape:pageopacity="0.0"
     inkscape:pagecheckerboard="0"
     inkscape:deskcolor="#d1d1d1"
     inkscape:document-units="px"
     inkscape:zoom="1.5878906"
     inkscape:cx="48.492006"
     inkscape:cy="144.53137"
     inkscape:window-width="1920"
     inkscape:window-height="1009"
     inkscape:window-x="-8"
     inkscape:window-y="-8"
     inkscape:window-maximized="1"
     inkscape:current-layer="layer1" />
  <defs
     id="defs1">
    <inkscape:path-effect
       effect="offset"
       id="path-effect10"
       is_visible="true"
       lpeversion="1.2"
       linejoin_type="round"
       unit="mm"
       offset="0.8"
       miter_limit="4"
       attempt_force_join="false"
       update_on_knot_move="true" />
    <inkscape:path-effect
       effect="fillet_chamfer"
       id="path-effect9"
       is_visible="true"
       lpeversion="1"
       nodesatellites_param="F,0,0,1,0,3,0,1 @ F,0,0,1,0,3,0,1 @ F,0,0,1,0,3,0,1 @ F,0,0,1,0,3,0,1 @ F,0,0,1,0,3,0,1 @ F,0,0,1,0,3,0,1"
       radius="3"
       unit="px"
       method="auto"
       mode="F"
       chamfer_steps="1"
       flexible="false"
       use_knot_distance="true"
       apply_no_radius="true"
       apply_with_radius="true"
       only_selected="false"
       hide_knots="false" />
    <inkscape:path-effect
       effect="offset"
       id="path-effect7"
       is_visible="true"
       lpeversion="1.2"
       linejoin_type="miter"
       unit="px"
       offset="0"
       miter_limit="4"
       attempt_force_join="false"
       update_on_knot_move="true" />
    <inkscape:path-effect
       effect="fillet_chamfer"
       id="path-effect6"
       is_visible="true"
       lpeversion="1"
       nodesatellites_param="F,0,0,1,0,3,0,1 @ F,0,0,1,0,3,0,1 @ F,0,0,1,0,3,0,1 @ F,0,0,1,0,3,0,1 @ F,0,0,1,0,3,0,1 @ F,0,0,1,0,3,0,1"
       radius="3"
       unit="px"
       method="auto"
       mode="F"
       chamfer_steps="1"
       flexible="false"
       use_knot_distance="true"
       apply_no_radius="true"
       apply_with_radius="true"
       only_selected="false"
       hide_knots="false" />
    <inkscape:path-effect
       effect="fillet_chamfer"
       id="path-effect4"
       is_visible="true"
       lpeversion="1"
       nodesatellites_param="F,0,0,1,0,3,0,1 @ F,0,0,1,0,3,0,1 @ F,0,0,1,0,3,0,1 @ F,0,0,1,0,3,0,1 @ F,0,0,1,0,3,0,1 @ F,0,0,1,0,3,0,1"
       radius="3"
       unit="px"
       method="auto"
       mode="F"
       chamfer_steps="1"
       flexible="false"
       use_knot_distance="true"
       apply_no_radius="true"
       apply_with_radius="true"
       only_selected="false"
       hide_knots="false" />
    <inkscape:path-effect
       effect="bounding_box"
       linkedpath=""
       id="path-effect2"
       is_visible="true"
       lpeversion="1.3"
       visualbounds="false" />
  </defs>
  <g
     inkscape:label="Layer 1"
     inkscape:groupmode="layer"
     id="layer1">
    <path
       id="path7"
       style="opacity:1;fill:#2f2f2f;fill-opacity:1;fill-rule:nonzero;stroke:#000000;stroke-width:0"
       d="m 24.356771,56.046875 c 2.789721,10e-7 5.023437,-2.233716 5.023437,-5.023437 V 29.380209 h 21.64323 c 2.789721,0 5.023437,-2.233716 5.023437,-5.023438 V 15.023438 C 56.046875,12.233716 53.813159,10 51.023438,10 H 15.023437 C 12.233716,10 10,12.233716 10,15.023438 v 36 c 0,2.789721 2.233716,5.023438 5.023437,5.023437 z" />
    <path
       id="rect1"
       style="opacity:1;fill:#555555;fill-opacity:1;fill-rule:nonzero;stroke:#000000;stroke-width:0"
       d="M 26.356771,51.023438 V 28.356771 a 2,2 0 0 1 2,-2 h 22.666667 a 2,2 0 0 0 2,-2 v -9.333333 a 2,2 0 0 0 -2,-2 H 15.023437 a 2,2 0 0 0 -2,2 v 36 a 2,2 0 0 0 2,2 h 9.333334 a 2,2 0 0 0 2,-2 z" />
    <path
       id="path10"
       style="opacity:1;fill:#2f2f2f;fill-opacity:1;fill-rule:nonzero;stroke:#000000;stroke-width:0"
       d="m 199.953,24.356778 c 0,2.78972 2.23372,5.02343 5.02344,5.02343 h 21.64323 v 21.64323 c 0,2.78972 2.23371,5.02344 5.02344,5.02344 h 9.33333 c 2.78972,0 5.02344,-2.23372 5.02344,-5.02344 v -36 c 0,-2.78972 -2.23372,-5.0234405 -5.02344,-5.0234405 h -36 c -2.78972,0 -5.02344,2.2337205 -5.02344,5.0234405 z" />
    <path
       id="path11"
       style="opacity:1;fill:#555555;fill-opacity:1;fill-rule:nonzero;stroke:#000000;stroke-width:0"
       d="m 204.976,26.356778 h 22.66667 a 2,2 0 0 1 2,2 v 22.66666 a 2,2 0 0 0 2,2 h 9.33333 a 2,2 0 0 0 2,-2 v -36 a 2,2 0 0 0 -2,-2 h -36 a 2,2 0 0 0 -2,2 v 9.33334 a 2,2 0 0 0 2,2 z" />
    <path
       id="path12"
       style="opacity:1;fill:#2f2f2f;fill-opacity:1;fill-rule:nonzero;stroke:#000000;stroke-width:0"
       d="m 24.356771,199.953 c 2.789721,0 5.023437,2.23372 5.023437,5.02344 v 21.64323 h 21.64323 c 2.789721,0 5.023437,2.23371 5.023437,5.02344 v 9.33333 c 0,2.78972 -2.233716,5.02344 -5.023437,5.02344 H 15.023437 C 12.233716,245.99988 10,243.76616 10,240.97644 v -36 c 0,-2.78972 2.233716,-5.02344 5.023437,-5.02344 z" />
    <path
       id="path13"
       style="opacity:1;fill:#555555;fill-opacity:1;fill-rule:nonzero;stroke:#000000;stroke-width:0"
       d="m 26.356771,204.97644 v 22.66667 a 2,2 0 0 0 2,2 h 22.666667 a 2,2 0 0 1 2,2 v 9.33333 a 2,2 0 0 1 -2,2 H 15.023437 a 2,2 0 0 1 -2,-2 v -36 a 2,2 0 0 1 2,-2 h 9.333334 a 2,2 0 0 1 2,2 z" />
    <path
       id="path14"
       style="opacity:1;fill:#2f2f2f;fill-opacity:1;fill-rule:nonzero;stroke:#000000;stroke-width:0"
       d="m 199.953,231.6431 c 0,-2.78972 2.23372,-5.02343 5.02344,-5.02343 h 21.64323 v -21.64323 c 0,-2.78972 2.23371,-5.02344 5.02344,-5.02344 h 9.33333 c 2.78972,0 5.02344,2.23372 5.02344,5.02344 v 36 c 0,2.78972 -2.23372,5.02344 -5.02344,5.02344 h -36 c -2.78972,0 -5.02344,-2.23372 -5.02344,-5.02344 z" />
    <path
       id="path15"
       style="opacity:1;fill:#555555;fill-opacity:1;fill-rule:nonzero;stroke:#000000;stroke-width:0"
       d="m 204.976,229.6431 h 22.66667 a 2,2 0 0 0 2,-2 v -22.66666 a 2,2 0 0 1 2,-2 h 9.33333 a 2,2 0 0 1 2,2 v 36 a 2,2 0 0 1 -2,2 h -36 a 2,2 0 0 1 -2,-2 v -9.33334 a 2,2 0 0 1 2,-2 z" />
  </g>
</svg>
